<?xml version="1.0" standalone="no"?>
<!DOCTYPE svg PUBLIC "-//W3C//DTD SVG 20010904//EN"
 "http://www.w3.org/TR/2001/REC-SVG-20010904/DTD/svg10.dtd">
<svg version="1.0" xmlns="http://www.w3.org/2000/svg"
 width="215.000000pt" height="215.000000pt" viewBox="0 0 215.000000 215.000000"
 preserveAspectRatio="xMidYMid meet">
<metadata>
Created by potrace 1.11, written by Peter Selinger 2001-2013
</metadata>
<g transform="translate(0.000000,215.000000) scale(0.100000,-0.100000)"
fill="#000000" stroke="none">
<path d="M135 2126 c-59 -27 -96 -67 -119 -128 -15 -39 -16 -131 -14 -938 3
-993 -2 -922 69 -989 72 -69 10 -65 979 -67 959 -2 947 -2 1014 57 20 17 45
52 58 79 l23 48 0 894 c-1 848 -2 895 -19 931 -22 45 -66 91 -110 115 -29 16
-101 17 -931 20 l-900 2 -50 -24z m1104 -302 c346 -74 598 -363 616 -708 13
-237 -71 -460 -236 -625 -88 -89 -274 -190 -320 -176 -26 9 -29 30 -26 175 3
134 -6 212 -29 244 -17 25 -18 33 -1 33 6 0 31 3 55 6 194 28 285 133 284 328
0 70 -16 119 -55 171 -18 25 -22 39 -17 59 11 37 4 138 -11 166 -11 21 -18 24
-48 18 -38 -7 -126 -49 -153 -72 -14 -13 -25 -13 -68 -3 -80 19 -297 15 -331
-6 -6 -3 -47 13 -92 35 -45 23 -96 44 -113 47 -27 5 -32 2 -44 -25 -15 -37
-21 -124 -10 -161 6 -21 0 -38 -28 -83 -33 -54 -35 -63 -35 -140 1 -202 84
-304 268 -332 89 -14 88 -13 66 -36 -10 -11 -22 -36 -25 -54 -6 -28 -12 -34
-47 -43 -78 -20 -130 1 -184 76 -33 46 -114 93 -145 85 -29 -8 -25 -17 19 -52
22 -18 53 -59 75 -100 48 -91 90 -114 199 -109 l74 3 0 -108 c1 -136 -6 -142
-107 -103 -216 85 -398 300 -459 541 -40 158 -25 355 38 506 142 339 512 523
890 443z m-659 -1054 c0 -5 -2 -10 -4 -10 -3 0 -8 5 -11 10 -3 6 -1 10 4 10 6
0 11 -4 11 -10z m35 -30 c3 -5 2 -10 -4 -10 -5 0 -13 5 -16 10 -3 6 -2 10 4
10 5 0 13 -4 16 -10z m33 -48 c6 -18 -15 -14 -22 4 -4 10 -1 14 6 12 6 -2 14
-10 16 -16z m42 -44 c0 -13 -23 -5 -28 10 -2 7 2 10 12 6 9 -3 16 -11 16 -16z
m55 -28 c3 -5 -1 -10 -9 -10 -8 0 -18 5 -21 10 -3 6 1 10 9 10 8 0 18 -4 21
-10z m125 2 c0 -13 -12 -22 -22 -16 -10 6 -1 24 13 24 5 0 9 -4 9 -8z m-60
-12 c0 -5 -7 -10 -15 -10 -8 0 -15 5 -15 10 0 6 7 10 15 10 8 0 15 -4 15 -10z"/>
</g>
</svg>
